<svg width="54" height="25" viewBox="0 0 54 25" fill="none" xmlns="http://www.w3.org/2000/svg">
<path fill-rule="evenodd" clip-rule="evenodd" d="M0 5C0 2.23858 2.23858 0 5 0L49 0C51.7614 0 54 2.23858 54 5V20C54 22.7614 51.7614 25 49 25H5C2.23858 25 0 22.7614 0 20L0 5Z" fill="#FFEEEE"/>
<path d="M14.5605 17H13.1426V10.1504L11.0508 10.8652V9.66406L14.3789 8.43945H14.5605V17ZM20.9062 12.3066H23.1328V13.6074H20.9062V16.1445H19.5234V13.6074H17.2852V12.3066H19.5234V9.93359H20.9062V12.3066ZM28.0723 17H26.6543V10.1504L24.5625 10.8652V9.66406L27.8906 8.43945H28.0723V17ZM36.2988 12.4297H31.248V11.2461H36.2988V12.4297ZM36.2988 14.9141H31.248V13.7363H36.2988V14.9141ZM39.3984 12.084H40.2656C40.7031 12.0801 41.0488 11.9668 41.3027 11.7441C41.5605 11.5215 41.6895 11.1992 41.6895 10.7773C41.6895 10.3711 41.582 10.0566 41.3672 9.83398C41.1562 9.60742 40.832 9.49414 40.3945 9.49414C40.0117 9.49414 39.6973 9.60547 39.4512 9.82812C39.2051 10.0469 39.082 10.334 39.082 10.6895H37.6582C37.6582 10.252 37.7734 9.85352 38.0039 9.49414C38.2383 9.13477 38.5625 8.85547 38.9766 8.65625C39.3945 8.45312 39.8613 8.35156 40.377 8.35156C41.2285 8.35156 41.8965 8.56641 42.3809 8.99609C42.8691 9.42188 43.1133 10.0156 43.1133 10.7773C43.1133 11.1602 42.9902 11.5215 42.7441 11.8613C42.502 12.1973 42.1875 12.4512 41.8008 12.623C42.2695 12.7832 42.625 13.0352 42.8672 13.3789C43.1133 13.7227 43.2363 14.1328 43.2363 14.6094C43.2363 15.375 42.9727 15.9844 42.4453 16.4375C41.9219 16.8906 41.2324 17.1172 40.377 17.1172C39.5566 17.1172 38.8848 16.8984 38.3613 16.4609C37.8379 16.0234 37.5762 15.4414 37.5762 14.7148H39C39 15.0898 39.125 15.3945 39.375 15.6289C39.6289 15.8633 39.9688 15.9805 40.3945 15.9805C40.8359 15.9805 41.1836 15.8633 41.4375 15.6289C41.6914 15.3945 41.8184 15.0547 41.8184 14.6094C41.8184 14.1602 41.6855 13.8145 41.4199 13.5723C41.1543 13.3301 40.7598 13.209 40.2363 13.209H39.3984V12.084Z" fill="#FF4F52"/>
</svg>
