<svg width="70" height="25" viewBox="0 0 70 25" fill="none" xmlns="http://www.w3.org/2000/svg">
<path fill-rule="evenodd" clip-rule="evenodd" d="M0 5C0 2.23858 2.23858 0 5 0L65 0C67.7614 0 70 2.23858 70 5V20C70 22.7614 67.7614 25 65 25H5C2.23858 25 0 22.7614 0 20L0 5Z" fill="#E2F6EC"/>
<path d="M18.0781 17H16.6016V13.209H12.7871V17H11.3047V8.46875H12.7871V12.0195H16.6016V8.46875H18.0781V17ZM19.4316 13.7715C19.4316 13.1504 19.5547 12.5918 19.8008 12.0957C20.0469 11.5957 20.3926 11.2129 20.8379 10.9473C21.2832 10.6777 21.7949 10.543 22.373 10.543C23.2285 10.543 23.9219 10.8184 24.4531 11.3691C24.9883 11.9199 25.2773 12.6504 25.3203 13.5605L25.3262 13.8945C25.3262 14.5195 25.2051 15.0781 24.9629 15.5703C24.7246 16.0625 24.3809 16.4434 23.9316 16.7129C23.4863 16.9824 22.9707 17.1172 22.3848 17.1172C21.4902 17.1172 20.7734 16.8203 20.2344 16.2266C19.6992 15.6289 19.4316 14.834 19.4316 13.8418V13.7715ZM20.8555 13.8945C20.8555 14.5469 20.9902 15.0586 21.2598 15.4297C21.5293 15.7969 21.9043 15.9805 22.3848 15.9805C22.8652 15.9805 23.2383 15.793 23.5039 15.418C23.7734 15.043 23.9082 14.4941 23.9082 13.7715C23.9082 13.1309 23.7695 12.623 23.4922 12.248C23.2188 11.873 22.8457 11.6855 22.373 11.6855C21.9082 11.6855 21.5391 11.8711 21.2656 12.2422C20.9922 12.6094 20.8555 13.1602 20.8555 13.8945ZM26.6387 17V10.6602H29.2109C30.0781 10.6602 30.7383 10.8125 31.1914 11.1172C31.6445 11.418 31.8711 11.8516 31.8711 12.418C31.8711 12.7109 31.7793 12.9746 31.5957 13.209C31.416 13.4395 31.1484 13.6172 30.793 13.7422C31.207 13.8281 31.5352 14.002 31.7773 14.2637C32.0195 14.5254 32.1406 14.834 32.1406 15.1895C32.1406 15.7793 31.9219 16.2285 31.4844 16.5371C31.0508 16.8457 30.4258 17 29.6094 17H26.6387ZM28.0625 14.2988V15.875H29.6211C30.3516 15.875 30.7168 15.6133 30.7168 15.0898C30.7168 14.5625 30.3457 14.2988 29.6035 14.2988H28.0625ZM28.0625 13.2793H29.2344C30.043 13.2793 30.4473 13.041 30.4473 12.5645C30.4473 12.0645 30.0645 11.8066 29.2988 11.791H28.0625V13.2793ZM37.332 10.6602H38.75V17H37.332V12.7695L34.8477 17H33.4297V10.6602H34.8477V14.8906L37.332 10.6602ZM45.6348 17H44.2109V14.4395H41.7441V17H40.3203V10.6602H41.7441V13.3027H44.2109V10.6602H45.6348V17ZM49.4082 14.4922H48.6875V17H47.2637V10.6602H48.6875V13.1914H49.3145L51.0664 10.6602H52.8242L50.5332 13.6953L53.0176 17H51.166L49.4082 14.4922ZM57.5879 17C57.5254 16.8789 57.4707 16.6816 57.4238 16.4082C56.9707 16.8809 56.416 17.1172 55.7598 17.1172C55.123 17.1172 54.6035 16.9355 54.2012 16.5723C53.7988 16.209 53.5977 15.7598 53.5977 15.2246C53.5977 14.5488 53.8477 14.0312 54.3477 13.6719C54.8516 13.3086 55.5703 13.127 56.5039 13.127H57.377V12.7109C57.377 12.3828 57.2852 12.1211 57.1016 11.9258C56.918 11.7266 56.6387 11.627 56.2637 11.627C55.9395 11.627 55.6738 11.709 55.4668 11.873C55.2598 12.0332 55.1562 12.2383 55.1562 12.4883H53.7324C53.7324 12.1406 53.8477 11.8164 54.0781 11.5156C54.3086 11.2109 54.6211 10.9727 55.0156 10.8008C55.4141 10.6289 55.8574 10.543 56.3457 10.543C57.0879 10.543 57.6797 10.7305 58.1211 11.1055C58.5625 11.4766 58.7891 12 58.8008 12.6758V15.5352C58.8008 16.1055 58.8809 16.5605 59.041 16.9004V17H57.5879ZM56.0234 15.9746C56.3047 15.9746 56.5684 15.9062 56.8145 15.7695C57.0645 15.6328 57.252 15.4492 57.377 15.2188V14.0234H56.6094C56.082 14.0234 55.6855 14.1152 55.4199 14.2988C55.1543 14.4824 55.0215 14.7422 55.0215 15.0781C55.0215 15.3516 55.1113 15.5703 55.291 15.7344C55.4746 15.8945 55.7188 15.9746 56.0234 15.9746Z" fill="#3DC47E"/>
</svg>
