<svg width="86" height="25" viewBox="0 0 86 25" fill="none" xmlns="http://www.w3.org/2000/svg">
<path fill-rule="evenodd" clip-rule="evenodd" d="M0 5C0 2.23858 2.23858 0 5 0L81 0C83.7614 0 86 2.23858 86 5V20C86 22.7614 83.7614 25 81 25H5C2.23858 25 0 22.7614 0 20L0 5Z" fill="#EEE9F7"/>
<path d="M16.4688 9.66406H12.5371V11.7324H14.2832C14.9082 11.7324 15.4531 11.8398 15.918 12.0547C16.3828 12.2695 16.7363 12.5742 16.9785 12.9688C17.2207 13.3633 17.3418 13.8203 17.3418 14.3398C17.3418 15.1367 17.0703 15.7773 16.5273 16.2617C15.9883 16.7461 15.252 16.9922 14.3184 17H11.0547V8.46875H16.4688V9.66406ZM12.5371 12.9219V15.8164H14.2773C14.7773 15.8164 15.166 15.6816 15.4434 15.4121C15.7246 15.1387 15.8652 14.7773 15.8652 14.3281C15.8652 13.8984 15.7285 13.5586 15.4551 13.3086C15.1816 13.0586 14.8027 12.9297 14.3184 12.9219H12.5371ZM21.2793 17.1172C20.377 17.1172 19.6445 16.834 19.082 16.2676C18.5234 15.6973 18.2441 14.9395 18.2441 13.9941V13.8184C18.2441 13.1855 18.3652 12.6211 18.6074 12.125C18.8535 11.625 19.1973 11.2363 19.6387 10.959C20.0801 10.6816 20.5723 10.543 21.1152 10.543C21.9785 10.543 22.6445 10.8184 23.1133 11.3691C23.5859 11.9199 23.8223 12.6992 23.8223 13.707V14.2812H19.6797C19.7227 14.8047 19.8965 15.2188 20.2012 15.5234C20.5098 15.8281 20.8965 15.9805 21.3613 15.9805C22.0137 15.9805 22.5449 15.7168 22.9551 15.1895L23.7227 15.9219C23.4688 16.3008 23.1289 16.5957 22.7031 16.8066C22.2812 17.0137 21.8066 17.1172 21.2793 17.1172ZM21.1094 11.6855C20.7188 11.6855 20.4023 11.8223 20.1602 12.0957C19.9219 12.3691 19.7695 12.75 19.7031 13.2383H22.416V13.1328C22.3848 12.6562 22.2578 12.2969 22.0352 12.0547C21.8125 11.8086 21.5039 11.6855 21.1094 11.6855ZM27.5371 15.9805C27.8926 15.9805 28.1875 15.877 28.4219 15.6699C28.6562 15.4629 28.7812 15.207 28.7969 14.9023H30.1387C30.123 15.2969 30 15.666 29.7695 16.0098C29.5391 16.3496 29.2266 16.6191 28.832 16.8184C28.4375 17.0176 28.0117 17.1172 27.5547 17.1172C26.668 17.1172 25.9648 16.8301 25.4453 16.2559C24.9258 15.6816 24.666 14.8887 24.666 13.877V13.7305C24.666 12.7656 24.9238 11.9941 25.4395 11.416C25.9551 10.834 26.6582 10.543 27.5488 10.543C28.3027 10.543 28.916 10.7637 29.3887 11.2051C29.8652 11.6426 30.1152 12.2188 30.1387 12.9336H28.7969C28.7812 12.5703 28.6562 12.2715 28.4219 12.0371C28.1914 11.8027 27.8965 11.6855 27.5371 11.6855C27.0762 11.6855 26.7207 11.8535 26.4707 12.1895C26.2207 12.5215 26.0938 13.0273 26.0898 13.707V13.9355C26.0898 14.623 26.2129 15.1367 26.459 15.4766C26.709 15.8125 27.0684 15.9805 27.5371 15.9805ZM36.2031 11.791H34.1465V17H32.7227V11.791H30.6895V10.6602H36.2031V11.791ZM39.3848 15.9805C39.7402 15.9805 40.0352 15.877 40.2695 15.6699C40.5039 15.4629 40.6289 15.207 40.6445 14.9023H41.9863C41.9707 15.2969 41.8477 15.666 41.6172 16.0098C41.3867 16.3496 41.0742 16.6191 40.6797 16.8184C40.2852 17.0176 39.8594 17.1172 39.4023 17.1172C38.5156 17.1172 37.8125 16.8301 37.293 16.2559C36.7734 15.6816 36.5137 14.8887 36.5137 13.877V13.7305C36.5137 12.7656 36.7715 11.9941 37.2871 11.416C37.8027 10.834 38.5059 10.543 39.3965 10.543C40.1504 10.543 40.7637 10.7637 41.2363 11.2051C41.7129 11.6426 41.9629 12.2188 41.9863 12.9336H40.6445C40.6289 12.5703 40.5039 12.2715 40.2695 12.0371C40.0391 11.8027 39.7441 11.6855 39.3848 11.6855C38.9238 11.6855 38.5684 11.8535 38.3184 12.1895C38.0684 12.5215 37.9414 13.0273 37.9375 13.707V13.9355C37.9375 14.623 38.0605 15.1367 38.3066 15.4766C38.5566 15.8125 38.916 15.9805 39.3848 15.9805ZM45.8535 17.1172C44.9512 17.1172 44.2188 16.834 43.6562 16.2676C43.0977 15.6973 42.8184 14.9395 42.8184 13.9941V13.8184C42.8184 13.1855 42.9395 12.6211 43.1816 12.125C43.4277 11.625 43.7715 11.2363 44.2129 10.959C44.6543 10.6816 45.1465 10.543 45.6895 10.543C46.5527 10.543 47.2188 10.8184 47.6875 11.3691C48.1602 11.9199 48.3965 12.6992 48.3965 13.707V14.2812H44.2539C44.2969 14.8047 44.4707 15.2188 44.7754 15.5234C45.084 15.8281 45.4707 15.9805 45.9355 15.9805C46.5879 15.9805 47.1191 15.7168 47.5293 15.1895L48.2969 15.9219C48.043 16.3008 47.7031 16.5957 47.2773 16.8066C46.8555 17.0137 46.3809 17.1172 45.8535 17.1172ZM45.6836 11.6855C45.293 11.6855 44.9766 11.8223 44.7344 12.0957C44.4961 12.3691 44.3438 12.75 44.2773 13.2383H46.9902V13.1328C46.959 12.6562 46.832 12.2969 46.6094 12.0547C46.3867 11.8086 46.0781 11.6855 45.6836 11.6855ZM54.8945 10.6602V17H53.4707V11.8086H51.6777L51.5605 14.0176C51.4863 15.0801 51.2812 15.8438 50.9453 16.3086C50.6133 16.7695 50.1035 17 49.416 17H48.9766L48.9707 15.8164L49.2637 15.7871C49.5762 15.7441 49.8027 15.5547 49.9434 15.2188C50.0879 14.8789 50.1797 14.2617 50.2188 13.3672L50.3359 10.6602H54.8945ZM61.7969 10.6602V17H60.373V11.8086H58.5801L58.4629 14.0176C58.3887 15.0801 58.1836 15.8438 57.8477 16.3086C57.5156 16.7695 57.0059 17 56.3184 17H55.8789L55.873 15.8164L56.166 15.7871C56.4785 15.7441 56.7051 15.5547 56.8457 15.2188C56.9902 14.8789 57.082 14.2617 57.1211 13.3672L57.2383 10.6602H61.7969ZM66.1035 17.1172C65.2012 17.1172 64.4688 16.834 63.9062 16.2676C63.3477 15.6973 63.0684 14.9395 63.0684 13.9941V13.8184C63.0684 13.1855 63.1895 12.6211 63.4316 12.125C63.6777 11.625 64.0215 11.2363 64.4629 10.959C64.9043 10.6816 65.3965 10.543 65.9395 10.543C66.8027 10.543 67.4688 10.8184 67.9375 11.3691C68.4102 11.9199 68.6465 12.6992 68.6465 13.707V14.2812H64.5039C64.5469 14.8047 64.7207 15.2188 65.0254 15.5234C65.334 15.8281 65.7207 15.9805 66.1855 15.9805C66.8379 15.9805 67.3691 15.7168 67.7793 15.1895L68.5469 15.9219C68.293 16.3008 67.9531 16.5957 67.5273 16.8066C67.1055 17.0137 66.6309 17.1172 66.1035 17.1172ZM65.9336 11.6855C65.543 11.6855 65.2266 11.8223 64.9844 12.0957C64.7461 12.3691 64.5938 12.75 64.5273 13.2383H67.2402V13.1328C67.209 12.6562 67.082 12.2969 66.8594 12.0547C66.6367 11.8086 66.3281 11.6855 65.9336 11.6855ZM75.3086 13.8945C75.3086 14.875 75.0859 15.6582 74.6406 16.2441C74.1953 16.8262 73.5977 17.1172 72.8477 17.1172C72.1523 17.1172 71.5957 16.8887 71.1777 16.4316V19.4375H69.7539V10.6602H71.0664L71.125 11.3047C71.543 10.7969 72.1113 10.543 72.8301 10.543C73.6035 10.543 74.209 10.832 74.6465 11.4102C75.0879 11.9844 75.3086 12.7832 75.3086 13.8066V13.8945ZM73.8906 13.7715C73.8906 13.1387 73.7637 12.6367 73.5098 12.2656C73.2598 11.8945 72.9004 11.709 72.4316 11.709C71.8496 11.709 71.4316 11.9492 71.1777 12.4297V15.2422C71.4355 15.7344 71.8574 15.9805 72.4434 15.9805C72.8965 15.9805 73.25 15.7988 73.5039 15.4355C73.7617 15.0684 73.8906 14.5137 73.8906 13.7715Z" fill="#AC8EE3"/>
</svg>
