<svg width="144" height="25" viewBox="0 0 144 25" fill="none" xmlns="http://www.w3.org/2000/svg">
<rect opacity="0.15" width="144" height="25" rx="5" fill="#7986CB"/>
<path d="M36.0117 10.7188C36.0117 11.1367 35.9043 11.5098 35.6895 11.8379C35.4746 12.1621 35.1816 12.418 34.8105 12.6055C35.2559 12.8125 35.5977 13.0957 35.8359 13.4551C36.0781 13.8145 36.1992 14.2207 36.1992 14.6738C36.1992 15.4238 35.9453 16.0195 35.4375 16.4609C34.9297 16.8984 34.2539 17.1172 33.4102 17.1172C32.5625 17.1172 31.8828 16.8965 31.3711 16.4551C30.8633 16.0137 30.6094 15.4199 30.6094 14.6738C30.6094 14.2168 30.7305 13.8066 30.9727 13.4434C31.2148 13.0801 31.5547 12.8008 31.9922 12.6055C31.625 12.418 31.334 12.1621 31.1191 11.8379C30.9082 11.5098 30.8027 11.1367 30.8027 10.7188C30.8027 9.99219 31.0371 9.41602 31.5059 8.99023C31.9746 8.56445 32.6074 8.35156 33.4043 8.35156C34.2051 8.35156 34.8398 8.56445 35.3086 8.99023C35.7773 9.41602 36.0117 9.99219 36.0117 10.7188ZM34.7754 14.6035C34.7754 14.1816 34.6484 13.8418 34.3945 13.584C34.1445 13.3223 33.8125 13.1914 33.3984 13.1914C32.9844 13.1914 32.6523 13.3203 32.4023 13.5781C32.1562 13.8359 32.0332 14.1777 32.0332 14.6035C32.0332 15.0215 32.1543 15.3555 32.3965 15.6055C32.6426 15.8555 32.9805 15.9805 33.4102 15.9805C33.8398 15.9805 34.1738 15.8594 34.4121 15.6172C34.6543 15.375 34.7754 15.0371 34.7754 14.6035ZM34.5938 10.7715C34.5938 10.4004 34.4863 10.0957 34.2715 9.85742C34.0566 9.61523 33.7676 9.49414 33.4043 9.49414C33.041 9.49414 32.7539 9.60938 32.543 9.83984C32.332 10.0664 32.2266 10.377 32.2266 10.7715C32.2266 11.1621 32.332 11.4727 32.543 11.7031C32.7578 11.9336 33.0469 12.0488 33.4102 12.0488C33.7734 12.0488 34.0605 11.9336 34.2715 11.7031C34.4863 11.4727 34.5938 11.1621 34.5938 10.7715ZM41.4961 13.4316C41.0195 13.9355 40.4629 14.1875 39.8262 14.1875C39.0762 14.1875 38.4785 13.9258 38.0332 13.4023C37.5879 12.875 37.3652 12.1836 37.3652 11.3281C37.3652 10.7656 37.4785 10.2559 37.7051 9.79883C37.9316 9.3418 38.2539 8.98633 38.6719 8.73242C39.0898 8.47852 39.5742 8.35156 40.125 8.35156C40.9844 8.35156 41.666 8.67188 42.1699 9.3125C42.6738 9.95312 42.9258 10.8105 42.9258 11.8848V12.2832C42.9258 13.8223 42.5781 14.9961 41.8828 15.8047C41.1875 16.6133 40.1504 17.0234 38.7715 17.0352H38.6016V15.8574H38.8066C39.6465 15.8457 40.291 15.6445 40.7402 15.2539C41.1895 14.8594 41.4414 14.252 41.4961 13.4316ZM40.125 13.0742C40.4102 13.0742 40.6777 12.9922 40.9277 12.8281C41.1777 12.6641 41.3711 12.4375 41.5078 12.1484V11.5918C41.5078 10.9629 41.3789 10.457 41.1211 10.0742C40.8633 9.69141 40.5293 9.5 40.1191 9.5C39.709 9.5 39.3809 9.66992 39.1348 10.0098C38.8926 10.3457 38.7715 10.7715 38.7715 11.2871C38.7715 11.8223 38.8945 12.2539 39.1406 12.582C39.3867 12.9102 39.7148 13.0742 40.125 13.0742ZM44.2207 10.1094C44.2207 9.59375 44.3867 9.17188 44.7188 8.84375C45.0508 8.51172 45.4863 8.3457 46.0254 8.3457C46.5723 8.3457 47.0098 8.51172 47.3379 8.84375C47.6699 9.17188 47.8359 9.60352 47.8359 10.1387V10.5605C47.8359 11.0723 47.6699 11.4922 47.3379 11.8203C47.0098 12.1484 46.5762 12.3125 46.0371 12.3125C45.5098 12.3125 45.0742 12.1523 44.7305 11.832C44.3906 11.5078 44.2207 11.0723 44.2207 10.5254V10.1094ZM45.2168 10.5605C45.2168 10.8301 45.291 11.0488 45.4395 11.2168C45.5918 11.3809 45.791 11.4629 46.0371 11.4629C46.2793 11.4629 46.4746 11.3809 46.623 11.2168C46.7715 11.0488 46.8457 10.8223 46.8457 10.5371V10.1094C46.8457 9.83984 46.7695 9.62109 46.6172 9.45312C46.4688 9.28516 46.2715 9.20117 46.0254 9.20117C45.7793 9.20117 45.582 9.28711 45.4336 9.45898C45.2891 9.62695 45.2168 9.84961 45.2168 10.127V10.5605ZM48.3223 14.9082C48.3223 14.3848 48.4922 13.9609 48.832 13.6367C49.1719 13.3125 49.6055 13.1504 50.1328 13.1504C50.6641 13.1504 51.0977 13.3125 51.4336 13.6367C51.7734 13.9609 51.9434 14.3984 51.9434 14.9492V15.3652C51.9434 15.873 51.7793 16.293 51.4512 16.625C51.127 16.9531 50.6914 17.1172 50.1445 17.1172C49.5977 17.1172 49.1562 16.9551 48.8203 16.6309C48.4883 16.3027 48.3223 15.8711 48.3223 15.3359V14.9082ZM49.3184 15.3652C49.3184 15.6309 49.3945 15.8496 49.5469 16.0215C49.7031 16.1895 49.9023 16.2734 50.1445 16.2734C50.3945 16.2734 50.5898 16.1934 50.7305 16.0332C50.875 15.8691 50.9473 15.6406 50.9473 15.3477V14.9082C50.9473 14.6348 50.8711 14.416 50.7188 14.252C50.5664 14.0879 50.3711 14.0059 50.1328 14.0059C49.8906 14.0059 49.6934 14.0879 49.541 14.252C49.3926 14.416 49.3184 14.6426 49.3184 14.9316V15.3652ZM46.3301 16.3613L45.5977 15.9395L49.7637 9.27148L50.4961 9.69336L46.3301 16.3613ZM61.7227 13.8945C61.7227 14.875 61.5 15.6582 61.0547 16.2441C60.6094 16.8262 60.0117 17.1172 59.2617 17.1172C58.5664 17.1172 58.0098 16.8887 57.5918 16.4316V19.4375H56.168V10.6602H57.4805L57.5391 11.3047C57.957 10.7969 58.5254 10.543 59.2441 10.543C60.0176 10.543 60.623 10.832 61.0605 11.4102C61.502 11.9844 61.7227 12.7832 61.7227 13.8066V13.8945ZM60.3047 13.7715C60.3047 13.1387 60.1777 12.6367 59.9238 12.2656C59.6738 11.8945 59.3145 11.709 58.8457 11.709C58.2637 11.709 57.8457 11.9492 57.5918 12.4297V15.2422C57.8496 15.7344 58.2715 15.9805 58.8574 15.9805C59.3105 15.9805 59.6641 15.7988 59.918 15.4355C60.1758 15.0684 60.3047 14.5137 60.3047 13.7715ZM65.7246 17.1172C64.8223 17.1172 64.0898 16.834 63.5273 16.2676C62.9688 15.6973 62.6895 14.9395 62.6895 13.9941V13.8184C62.6895 13.1855 62.8105 12.6211 63.0527 12.125C63.2988 11.625 63.6426 11.2363 64.084 10.959C64.5254 10.6816 65.0176 10.543 65.5605 10.543C66.4238 10.543 67.0898 10.8184 67.5586 11.3691C68.0312 11.9199 68.2676 12.6992 68.2676 13.707V14.2812H64.125C64.168 14.8047 64.3418 15.2188 64.6465 15.5234C64.9551 15.8281 65.3418 15.9805 65.8066 15.9805C66.459 15.9805 66.9902 15.7168 67.4004 15.1895L68.168 15.9219C67.9141 16.3008 67.5742 16.5957 67.1484 16.8066C66.7266 17.0137 66.252 17.1172 65.7246 17.1172ZM65.5547 11.6855C65.1641 11.6855 64.8477 11.8223 64.6055 12.0957C64.3672 12.3691 64.2148 12.75 64.1484 13.2383H66.8613V13.1328C66.8301 12.6562 66.7031 12.2969 66.4805 12.0547C66.2578 11.8086 65.9492 11.6855 65.5547 11.6855ZM71.6309 14.4922H70.9102V17H69.4863V10.6602H70.9102V13.1914H71.5371L73.2891 10.6602H75.0469L72.7559 13.6953L75.2402 17H73.3887L71.6309 14.4922ZM75.416 13.7715C75.416 13.1504 75.5391 12.5918 75.7852 12.0957C76.0312 11.5957 76.377 11.2129 76.8223 10.9473C77.2676 10.6777 77.7793 10.543 78.3574 10.543C79.2129 10.543 79.9062 10.8184 80.4375 11.3691C80.9727 11.9199 81.2617 12.6504 81.3047 13.5605L81.3105 13.8945C81.3105 14.5195 81.1895 15.0781 80.9473 15.5703C80.709 16.0625 80.3652 16.4434 79.916 16.7129C79.4707 16.9824 78.9551 17.1172 78.3691 17.1172C77.4746 17.1172 76.7578 16.8203 76.2188 16.2266C75.6836 15.6289 75.416 14.834 75.416 13.8418V13.7715ZM76.8398 13.8945C76.8398 14.5469 76.9746 15.0586 77.2441 15.4297C77.5137 15.7969 77.8887 15.9805 78.3691 15.9805C78.8496 15.9805 79.2227 15.793 79.4883 15.418C79.7578 15.043 79.8926 14.4941 79.8926 13.7715C79.8926 13.1309 79.7539 12.623 79.4766 12.248C79.2031 11.873 78.8301 11.6855 78.3574 11.6855C77.8926 11.6855 77.5234 11.8711 77.25 12.2422C76.9766 12.6094 76.8398 13.1602 76.8398 13.8945ZM86.2793 15.248L88.1543 10.6602H89.9355V17H88.5117V12.8047L86.7656 17H85.7988L84.0469 12.7812V17H82.623V10.6602H84.416L86.2793 15.248ZM94.3301 17.1172C93.4277 17.1172 92.6953 16.834 92.1328 16.2676C91.5742 15.6973 91.2949 14.9395 91.2949 13.9941V13.8184C91.2949 13.1855 91.416 12.6211 91.6582 12.125C91.9043 11.625 92.248 11.2363 92.6895 10.959C93.1309 10.6816 93.623 10.543 94.166 10.543C95.0293 10.543 95.6953 10.8184 96.1641 11.3691C96.6367 11.9199 96.873 12.6992 96.873 13.707V14.2812H92.7305C92.7734 14.8047 92.9473 15.2188 93.252 15.5234C93.5605 15.8281 93.9473 15.9805 94.4121 15.9805C95.0645 15.9805 95.5957 15.7168 96.0059 15.1895L96.7734 15.9219C96.5195 16.3008 96.1797 16.5957 95.7539 16.8066C95.332 17.0137 94.8574 17.1172 94.3301 17.1172ZM94.1602 11.6855C93.7695 11.6855 93.4531 11.8223 93.2109 12.0957C92.9727 12.3691 92.8203 12.75 92.7539 13.2383H95.4668V13.1328C95.4355 12.6562 95.3086 12.2969 95.0859 12.0547C94.8633 11.8086 94.5547 11.6855 94.1602 11.6855ZM103.354 17H101.93V14.4395H99.4629V17H98.0391V10.6602H99.4629V13.3027H101.93V10.6602H103.354V17ZM104.9 15.8633C105.295 15.4219 105.559 15.0039 105.691 14.6094C105.828 14.2109 105.91 13.7031 105.938 13.0859L106.02 10.6602H110.42V15.8633H111.299V18.8867H109.881V17H105.814V18.8867H104.373L104.379 15.8633H104.9ZM106.57 15.8633H109.002V11.8848H107.402L107.361 13.0977C107.307 14.2617 107.043 15.1836 106.57 15.8633ZM114.533 14.9609L115.822 10.6602H117.34L114.82 17.9609C114.434 19.0273 113.777 19.5605 112.852 19.5605C112.645 19.5605 112.416 19.5254 112.166 19.4551V18.3535L112.436 18.3711C112.795 18.3711 113.064 18.3047 113.244 18.1719C113.428 18.043 113.572 17.8242 113.678 17.5156L113.883 16.9707L111.656 10.6602H113.191L114.533 14.9609ZM119.707 13.209H120.902C121.008 12.4004 121.32 11.7539 121.84 11.2695C122.359 10.7852 123.016 10.543 123.809 10.543C124.664 10.543 125.357 10.8184 125.889 11.3691C126.424 11.9199 126.713 12.6504 126.756 13.5605L126.762 13.8945C126.762 14.5195 126.641 15.0781 126.398 15.5703C126.16 16.0625 125.816 16.4434 125.367 16.7129C124.922 16.9824 124.406 17.1172 123.82 17.1172C123 17.1172 122.326 16.8633 121.799 16.3555C121.275 15.8477 120.973 15.1797 120.891 14.3516H119.707V17H118.283V10.6602H119.707V13.209ZM122.291 13.8945C122.291 14.5469 122.426 15.0586 122.695 15.4297C122.965 15.7969 123.34 15.9805 123.82 15.9805C124.301 15.9805 124.674 15.793 124.939 15.418C125.205 15.043 125.338 14.4941 125.338 13.7715C125.338 13.1191 125.199 12.6094 124.922 12.2422C124.648 11.8711 124.277 11.6855 123.809 11.6855C123.344 11.6855 122.975 11.8711 122.701 12.2422C122.428 12.6094 122.291 13.1602 122.291 13.8945ZM132.926 11.791H130.869V17H129.445V11.791H127.412V10.6602H132.926V11.791Z" fill="#7986CB"/>
<path fill-rule="evenodd" clip-rule="evenodd" d="M18.1604 6.875C17.2592 6.875 16.5551 7.597 16.5096 8.4583C16.4899 8.83186 16.4576 9.2307 16.4067 9.54251C16.388 9.65684 16.3264 9.82741 16.2142 10.0439C16.1059 10.2529 15.9684 10.4711 15.8284 10.6738C15.6894 10.8752 15.5535 11.0533 15.4522 11.1813C15.4356 11.2022 15.42 11.2217 15.4055 11.2397L14.5104 11.5C14.3008 11.343 14.0403 11.25 13.758 11.25H12.504C11.8114 11.25 11.25 11.8096 11.25 12.5V16.875C11.25 17.5654 11.8114 18.125 12.504 18.125H13.758C14.1408 18.125 14.4835 17.954 14.7135 17.6845L14.7138 17.6847C15.3117 17.9744 15.9679 18.125 16.6327 18.125H21.3966C22.3302 18.125 23.1225 17.4424 23.2577 16.5216L23.7298 13.3073C23.896 12.1757 23.0159 11.1607 21.8687 11.1607H20.4499V9.15722C20.4499 7.89678 19.4249 6.875 18.1604 6.875ZM15.0119 16.4393L15.2621 16.5605C15.6892 16.7674 16.1578 16.875 16.6327 16.875H21.3966C21.7078 16.875 21.9719 16.6475 22.017 16.3405L22.489 13.1262C22.5444 12.7491 22.2511 12.4107 21.8687 12.4107H19.8229C19.4766 12.4107 19.1959 12.1309 19.1959 11.7857V9.15722C19.1959 8.58714 18.7323 8.125 18.1604 8.125C17.9618 8.125 17.7742 8.29049 17.7618 8.52401C17.7414 8.9116 17.7063 9.36389 17.6444 9.7432C17.5948 10.0473 17.465 10.3538 17.3283 10.6175C17.1878 10.8888 17.0192 11.154 16.8614 11.3824C16.7029 11.6121 16.5497 11.8128 16.4363 11.9559C16.3795 12.0277 16.3321 12.0856 16.2986 12.126C16.2818 12.1463 16.2684 12.1622 16.259 12.1734L16.2478 12.1866L16.2446 12.1904L16.2435 12.1916L16.2432 12.192L16.243 12.1922C16.243 12.1922 16.2429 12.1923 15.7667 11.7857L16.2429 12.1923C16.1637 12.2845 16.0592 12.3517 15.9423 12.3857L15.0119 12.6562V16.4393ZM13.758 12.5H12.504V13.75V15.625V16.875H13.758V16.8304V15.625V13.75V12.5Z" fill="#7986CB"/>
</svg>
