<svg width="15" height="15" viewBox="0 0 15 15" fill="none" xmlns="http://www.w3.org/2000/svg">
<g clip-path="url(#clip0_381_81)">
<path fill-rule="evenodd" clip-rule="evenodd" d="M7.5 15C11.6421 15 15 11.6421 15 7.5C15 3.35786 11.6421 0 7.5 0C3.35786 0 0 3.35786 0 7.5C0 11.6421 3.35786 15 7.5 15Z" fill="#FF7A00"/>
<path d="M5.75537 11H4.69189V5.86279L3.12305 6.39893V5.49805L5.61914 4.57959H5.75537V11ZM12.1494 8.30615C12.1494 9.22607 11.9766 9.92041 11.6309 10.3892C11.2881 10.855 10.7651 11.0879 10.062 11.0879C9.37061 11.0879 8.84912 10.8608 8.49756 10.4067C8.14893 9.94971 7.97021 9.27441 7.96143 8.38086V7.27344C7.96143 6.35352 8.13281 5.66357 8.47559 5.20361C8.82129 4.74365 9.34717 4.51367 10.0532 4.51367C10.7534 4.51367 11.2749 4.73779 11.6177 5.18604C11.9634 5.63428 12.1406 6.30518 12.1494 7.19873V8.30615ZM11.0815 7.11084C11.0815 6.51025 10.9995 6.0708 10.8354 5.79248C10.6714 5.51123 10.4106 5.37061 10.0532 5.37061C9.70459 5.37061 9.44824 5.50391 9.28418 5.77051C9.12012 6.03418 9.03369 6.44727 9.0249 7.00977V8.45996C9.0249 9.05762 9.1084 9.50293 9.27539 9.7959C9.44238 10.0889 9.70459 10.2354 10.062 10.2354C10.4048 10.2354 10.6582 10.1006 10.8223 9.83105C10.9863 9.55859 11.0728 9.13379 11.0815 8.55664V7.11084Z" fill="white"/>
</g>
<defs>
<clipPath id="clip0_381_81">
<rect width="15" height="15" fill="white"/>
</clipPath>
</defs>
</svg>
