<svg width="52" height="25" viewBox="0 0 52 25" fill="none" xmlns="http://www.w3.org/2000/svg">
<path opacity="0.15" fill-rule="evenodd" clip-rule="evenodd" d="M0 5C0 2.23858 2.23858 0 5 0L47 0C49.7614 0 52 2.23858 52 5V20C52 22.7614 49.7614 25 47 25H5C2.23858 25 0 22.7614 0 20L0 5Z" fill="#FBC02D"/>
<path d="M31.4551 13.959H32.5156V15.1016H31.4551V17H30.0312V15.1016H26.3457L26.3047 14.2344L29.9844 8.46875H31.4551V13.959ZM27.7988 13.959H30.0312V10.3965L29.9258 10.584L27.7988 13.959ZM34.4375 15.5C34.7031 15.5 34.9082 15.5762 35.0527 15.7285C35.1973 15.877 35.2695 16.0645 35.2695 16.291C35.2695 16.5137 35.1973 16.6992 35.0527 16.8477C34.9082 16.9922 34.7031 17.0645 34.4375 17.0645C34.1836 17.0645 33.9824 16.9922 33.834 16.8477C33.6855 16.7031 33.6113 16.5176 33.6113 16.291C33.6113 16.0645 33.6836 15.877 33.8281 15.7285C33.9727 15.5762 34.1758 15.5 34.4375 15.5ZM40.8477 13.4316C40.3711 13.9355 39.8145 14.1875 39.1777 14.1875C38.4277 14.1875 37.8301 13.9258 37.3848 13.4023C36.9395 12.875 36.7168 12.1836 36.7168 11.3281C36.7168 10.7656 36.8301 10.2559 37.0566 9.79883C37.2832 9.3418 37.6055 8.98633 38.0234 8.73242C38.4414 8.47852 38.9258 8.35156 39.4766 8.35156C40.3359 8.35156 41.0176 8.67188 41.5215 9.3125C42.0254 9.95312 42.2773 10.8105 42.2773 11.8848V12.2832C42.2773 13.8223 41.9297 14.9961 41.2344 15.8047C40.5391 16.6133 39.502 17.0234 38.123 17.0352H37.9531V15.8574H38.1582C38.998 15.8457 39.6426 15.6445 40.0918 15.2539C40.541 14.8594 40.793 14.252 40.8477 13.4316ZM39.4766 13.0742C39.7617 13.0742 40.0293 12.9922 40.2793 12.8281C40.5293 12.6641 40.7227 12.4375 40.8594 12.1484V11.5918C40.8594 10.9629 40.7305 10.457 40.4727 10.0742C40.2148 9.69141 39.8809 9.5 39.4707 9.5C39.0605 9.5 38.7324 9.66992 38.4863 10.0098C38.2441 10.3457 38.123 10.7715 38.123 11.2871C38.123 11.8223 38.2461 12.2539 38.4922 12.582C38.7383 12.9102 39.0664 13.0742 39.4766 13.0742Z" fill="#FBC02D"/>
<path fill-rule="evenodd" clip-rule="evenodd" d="M15.5 15.7938L19.3625 18.125L18.3375 13.7313L21.75 10.775L17.2563 10.3938L15.5 6.25L13.7438 10.3938L9.25 10.775L12.6625 13.7313L11.6375 18.125L15.5 15.7938Z" fill="#FBC02D"/>
</svg>
