<svg width="41" height="15" viewBox="0 0 41 15" fill="none" xmlns="http://www.w3.org/2000/svg">
<path d="M4.27148 11H3.18164V3.77539L0.996094 4.57812V3.59375L4.10156 2.42773H4.27148V11ZM16.0137 11H10.4238V10.2207L13.377 6.93945C13.8145 6.44336 14.1152 6.04102 14.2793 5.73242C14.4473 5.41992 14.5312 5.09766 14.5312 4.76562C14.5312 4.32031 14.3965 3.95508 14.127 3.66992C13.8574 3.38477 13.498 3.24219 13.0488 3.24219C12.5098 3.24219 12.0898 3.39648 11.7891 3.70508C11.4922 4.00977 11.3438 4.43555 11.3438 4.98242H10.2598C10.2598 4.19727 10.5117 3.5625 11.0156 3.07812C11.5234 2.59375 12.2012 2.35156 13.0488 2.35156C13.8418 2.35156 14.4688 2.56055 14.9297 2.97852C15.3906 3.39258 15.6211 3.94531 15.6211 4.63672C15.6211 5.47656 15.0859 6.47656 14.0156 7.63672L11.7305 10.1152H16.0137V11ZM22.3359 4.69531C22.3359 5.12109 22.2227 5.5 21.9961 5.83203C21.7734 6.16406 21.4707 6.42383 21.0879 6.61133C21.5332 6.80273 21.8848 7.08203 22.1426 7.44922C22.4043 7.81641 22.5352 8.23242 22.5352 8.69727C22.5352 9.43555 22.2852 10.0234 21.7852 10.4609C21.2891 10.8984 20.6348 11.1172 19.8223 11.1172C19.002 11.1172 18.3438 10.8984 17.8477 10.4609C17.3555 10.0195 17.1094 9.43164 17.1094 8.69727C17.1094 8.23633 17.2344 7.82031 17.4844 7.44922C17.7383 7.07812 18.0879 6.79688 18.5332 6.60547C18.1543 6.41797 17.8555 6.1582 17.6367 5.82617C17.418 5.49414 17.3086 5.11719 17.3086 4.69531C17.3086 3.97656 17.5391 3.40625 18 2.98438C18.4609 2.5625 19.0684 2.35156 19.8223 2.35156C20.5723 2.35156 21.1777 2.5625 21.6387 2.98438C22.1035 3.40625 22.3359 3.97656 22.3359 4.69531ZM21.4512 8.67383C21.4512 8.19727 21.2988 7.80859 20.9941 7.50781C20.6934 7.20703 20.2988 7.05664 19.8105 7.05664C19.3223 7.05664 18.9297 7.20508 18.6328 7.50195C18.3398 7.79883 18.1934 8.18945 18.1934 8.67383C18.1934 9.1582 18.3359 9.53906 18.6211 9.81641C18.9102 10.0938 19.3105 10.2324 19.8223 10.2324C20.3301 10.2324 20.7285 10.0938 21.0176 9.81641C21.3066 9.53516 21.4512 9.1543 21.4512 8.67383ZM19.8223 3.24219C19.3965 3.24219 19.0508 3.375 18.7852 3.64062C18.5234 3.90234 18.3926 4.25977 18.3926 4.71289C18.3926 5.14648 18.5215 5.49805 18.7793 5.76758C19.041 6.0332 19.3887 6.16602 19.8223 6.16602C20.2559 6.16602 20.6016 6.0332 20.8594 5.76758C21.1211 5.49805 21.252 5.14648 21.252 4.71289C21.252 4.2793 21.1172 3.92578 20.8477 3.65234C20.5781 3.37891 20.2363 3.24219 19.8223 3.24219ZM28.4766 8.13477H29.6602V9.01953H28.4766V11H27.3867V9.01953H23.502V8.38086L27.3223 2.46875H28.4766V8.13477ZM24.7324 8.13477H27.3867V3.95117L27.2578 4.18555L24.7324 8.13477ZM37.3828 9.38867H35.4199V11H34.3008V9.38867H33.0879V8.46289H34.3008V7.66016H33.0879V6.74023H34.3008V2.46875H37.4473C38.3613 2.46875 39.0859 2.70117 39.6211 3.16602C40.1562 3.63086 40.4238 4.25977 40.4238 5.05273C40.4238 5.88477 40.166 6.52734 39.6504 6.98047C39.1387 7.42969 38.4102 7.65625 37.4648 7.66016H35.4199V8.46289H37.3828V9.38867ZM35.4199 6.74023H37.4473C38.0527 6.74023 38.5137 6.59766 38.8301 6.3125C39.1465 6.02734 39.3047 5.61133 39.3047 5.06445C39.3047 4.56836 39.1406 4.16797 38.8125 3.86328C38.4844 3.55469 38.041 3.39844 37.4824 3.39453H35.4199V6.74023Z" fill="#1C294D" fill-opacity="0.5"/>
<rect y="9" width="41" height="1" rx="0.5" transform="rotate(-5 0 9)" fill="#FD3A3A"/>
</svg>
