<svg width="150" height="40" viewBox="0 0 150 40" fill="none" xmlns="http://www.w3.org/2000/svg">
<path d="M149.5 20C149.5 30.7696 140.77 39.5 130 39.5C119.23 39.5 110.5 30.7696 110.5 20C110.5 9.23045 119.23 0.5 130 0.5C140.77 0.5 149.5 9.23045 149.5 20Z" stroke="#282F36" stroke-opacity="0.15"/>
<path d="M138.98 14.6676C138.956 14.6385 138.916 14.6287 138.881 14.6445C138.373 14.8725 137.838 15.0364 137.288 15.1332C137.872 14.6885 138.308 14.0728 138.531 13.3667C138.542 13.3329 138.531 13.2959 138.504 13.2739C138.476 13.2519 138.438 13.2491 138.408 13.2672C137.749 13.6621 137.036 13.9404 136.287 14.0948C135.623 13.3984 134.697 13 133.737 13C131.787 13 130.2 14.6044 130.2 16.5765C130.2 16.815 130.223 17.0513 130.268 17.2806C127.566 17.112 125.04 15.8005 123.322 13.6703C123.304 13.6485 123.278 13.6364 123.25 13.6392C123.222 13.6413 123.197 13.6571 123.183 13.6813C122.87 14.2248 122.704 14.8468 122.704 15.4794C122.704 16.576 123.197 17.6012 124.036 18.2777C123.604 18.2252 123.182 18.0877 122.802 17.8742C122.776 17.8596 122.744 17.8598 122.719 17.8747C122.693 17.8895 122.677 17.917 122.676 17.9469L122.676 17.9927C122.676 19.5675 123.702 20.9502 125.163 21.4093C124.778 21.472 124.379 21.4678 123.987 21.3921C123.958 21.3866 123.927 21.3967 123.908 21.4192C123.888 21.4417 123.881 21.4732 123.89 21.5017C124.328 22.8836 125.545 23.8527 126.961 23.9734C125.78 24.8485 124.383 25.3095 122.908 25.3095C122.636 25.3095 122.363 25.2932 122.094 25.2613C122.056 25.2569 122.018 25.28 122.005 25.3171C121.992 25.3546 122.006 25.3965 122.039 25.4178C123.636 26.4531 125.482 27 127.378 27C133.581 27 137.287 21.9059 137.287 16.9812C137.287 16.8441 137.285 16.7076 137.279 16.5716C137.948 16.0767 138.523 15.471 138.986 14.7698C139.007 14.7385 139.004 14.6968 138.98 14.6676Z" fill="#282F36" fill-opacity="0.3"/>
<path d="M94.5 20C94.5 30.7696 85.7696 39.5 75 39.5C64.2304 39.5 55.5 30.7696 55.5 20C55.5 9.23045 64.2304 0.5 75 0.5C85.7696 0.5 94.5 9.23045 94.5 20Z" stroke="#282F36" stroke-opacity="0.15"/>
<path fill-rule="evenodd" clip-rule="evenodd" d="M74.9969 10.0059C72.2819 10.0059 71.9414 10.0174 70.8752 10.066C69.8111 10.1145 69.0844 10.2836 68.4485 10.5307C67.7912 10.7861 67.2337 11.128 66.6779 11.6837C66.1221 12.2395 65.7803 12.797 65.5248 13.4544C65.2777 14.0903 65.1087 14.817 65.0602 15.881C65.0115 16.9473 65 17.2877 65 20.0027C65 22.7177 65.0115 23.0581 65.0602 24.1244C65.1087 25.1884 65.2777 25.9151 65.5248 26.551C65.7803 27.2084 66.1221 27.7659 66.6779 28.3217C67.2337 28.8774 67.7912 29.2193 68.4485 29.4747C69.0844 29.7219 69.8111 29.8909 70.8752 29.9394C71.9414 29.988 72.2819 29.9995 74.9969 29.9995C77.7118 29.9995 78.0523 29.988 79.1185 29.9394C80.1826 29.8909 80.9093 29.7219 81.5452 29.4747C82.2025 29.2193 82.76 28.8774 83.3158 28.3217C83.8716 27.7659 84.2134 27.2084 84.4689 26.551C84.716 25.9151 84.885 25.1884 84.9335 24.1244C84.9822 23.0581 84.9937 22.7177 84.9937 20.0027C84.9937 17.2877 84.9822 16.9473 84.9335 15.881C84.885 14.817 84.716 14.0903 84.4689 13.4544C84.2134 12.797 83.8716 12.2395 83.3158 11.6837C82.76 11.128 82.2025 10.7861 81.5452 10.5307C80.9093 10.2836 80.1826 10.1145 79.1185 10.066C78.0523 10.0174 77.7118 10.0059 74.9969 10.0059ZM74.9969 11.8071C77.6661 11.8071 77.9823 11.8173 79.0364 11.8654C80.0111 11.9098 80.5404 12.0727 80.8927 12.2096C81.3593 12.3909 81.6923 12.6076 82.0421 12.9574C82.392 13.3072 82.6086 13.6402 82.79 14.1069C82.9269 14.4591 83.0897 14.9884 83.1342 15.9631C83.1823 17.0172 83.1925 17.3334 83.1925 20.0027C83.1925 22.672 83.1823 22.9882 83.1342 24.0423C83.0897 25.017 82.9269 25.5463 82.79 25.8986C82.6086 26.3652 82.392 26.6982 82.0421 27.048C81.6923 27.3978 81.3593 27.6145 80.8927 27.7958C80.5404 27.9327 80.0111 28.0956 79.0364 28.14C77.9825 28.1881 77.6663 28.1983 74.9969 28.1983C72.3274 28.1983 72.0113 28.1881 70.9573 28.14C69.9826 28.0956 69.4533 27.9327 69.101 27.7958C68.6344 27.6145 68.3013 27.3978 67.9515 27.048C67.6017 26.6982 67.3851 26.3652 67.2037 25.8986C67.0668 25.5463 66.904 25.017 66.8595 24.0423C66.8114 22.9882 66.8012 22.672 66.8012 20.0027C66.8012 17.3334 66.8114 17.0172 66.8595 15.9631C66.904 14.9884 67.0668 14.4591 67.2037 14.1069C67.3851 13.6402 67.6017 13.3072 67.9515 12.9574C68.3013 12.6076 68.6344 12.3909 69.101 12.2096C69.4533 12.0727 69.9826 11.9098 70.9573 11.8654C72.0114 11.8173 72.3276 11.8071 74.9969 11.8071Z" fill="#282F36" fill-opacity="0.3"/>
<path fill-rule="evenodd" clip-rule="evenodd" d="M74.9969 23.3359C73.1565 23.3359 71.6646 21.844 71.6646 20.0036C71.6646 18.1633 73.1565 16.6713 74.9969 16.6713C76.8372 16.6713 78.3291 18.1633 78.3291 20.0036C78.3291 21.844 76.8372 23.3359 74.9969 23.3359ZM74.9969 14.8701C72.1617 14.8701 69.8633 17.1685 69.8633 20.0036C69.8633 22.8388 72.1617 25.1371 74.9969 25.1371C77.832 25.1371 80.1304 22.8388 80.1304 20.0036C80.1304 17.1685 77.832 14.8701 74.9969 14.8701Z" fill="#282F36" fill-opacity="0.3"/>
<path fill-rule="evenodd" clip-rule="evenodd" d="M81.5328 14.6664C81.5328 15.329 80.9957 15.866 80.3331 15.866C79.6706 15.866 79.1335 15.329 79.1335 14.6664C79.1335 14.0039 79.6706 13.4668 80.3331 13.4668C80.9957 13.4668 81.5328 14.0039 81.5328 14.6664Z" fill="#282F36" fill-opacity="0.3"/>
<path d="M39.5 20C39.5 30.7696 30.7696 39.5 20 39.5C9.23045 39.5 0.5 30.7696 0.5 20C0.5 9.23045 9.23045 0.5 20 0.5C30.7696 0.5 39.5 9.23045 39.5 20Z" stroke="#282F36" stroke-opacity="0.15"/>
<path d="M24.6234 11.0037L22.2249 11C19.5302 11 17.7888 12.7387 17.7888 15.4298V17.4723H15.3771C15.1688 17.4723 15 17.6367 15 17.8395V20.7988C15 21.0016 15.1689 21.1658 15.3771 21.1658H17.7888V28.633C17.7888 28.8358 17.9575 29 18.1659 29H21.3124C21.5208 29 21.6896 28.8356 21.6896 28.633V21.1658H24.5093C24.7177 21.1658 24.8865 21.0016 24.8865 20.7988L24.8876 17.8395C24.8876 17.7421 24.8478 17.6489 24.7772 17.5799C24.7066 17.511 24.6103 17.4723 24.5103 17.4723H21.6896V15.7409C21.6896 14.9087 21.8933 14.4862 23.0073 14.4862L24.623 14.4857C24.8312 14.4857 25 14.3212 25 14.1186V11.3708C25 11.1683 24.8314 11.0041 24.6234 11.0037Z" fill="#282F36" fill-opacity="0.3"/>
</svg>
