<svg width="150" height="40" viewBox="0 0 150 40" fill="none" xmlns="http://www.w3.org/2000/svg">
<path fill-rule="evenodd" clip-rule="evenodd" d="M130 40C141.046 40 150 31.0457 150 20C150 8.9543 141.046 0 130 0C118.954 0 110 8.9543 110 20C110 31.0457 118.954 40 130 40Z" fill="#E4405F"/>
<path fill-rule="evenodd" clip-rule="evenodd" d="M129.997 10.0059C127.282 10.0059 126.941 10.0174 125.875 10.066C124.811 10.1145 124.084 10.2836 123.449 10.5307C122.791 10.7861 122.234 11.128 121.678 11.6837C121.122 12.2395 120.78 12.797 120.525 13.4544C120.278 14.0903 120.109 14.817 120.06 15.881C120.012 16.9473 120 17.2877 120 20.0027C120 22.7177 120.012 23.0581 120.06 24.1244C120.109 25.1884 120.278 25.9151 120.525 26.551C120.78 27.2084 121.122 27.7659 121.678 28.3217C122.234 28.8774 122.791 29.2193 123.449 29.4747C124.084 29.7219 124.811 29.8909 125.875 29.9394C126.941 29.988 127.282 29.9995 129.997 29.9995C132.712 29.9995 133.052 29.988 134.119 29.9394C135.183 29.8909 135.909 29.7219 136.545 29.4747C137.203 29.2193 137.76 28.8774 138.316 28.3217C138.872 27.7659 139.213 27.2084 139.469 26.551C139.716 25.9151 139.885 25.1884 139.934 24.1244C139.982 23.0581 139.994 22.7177 139.994 20.0027C139.994 17.2877 139.982 16.9473 139.934 15.881C139.885 14.817 139.716 14.0903 139.469 13.4544C139.213 12.797 138.872 12.2395 138.316 11.6837C137.76 11.128 137.203 10.7861 136.545 10.5307C135.909 10.2836 135.183 10.1145 134.119 10.066C133.052 10.0174 132.712 10.0059 129.997 10.0059ZM129.997 11.8071C132.666 11.8071 132.982 11.8173 134.036 11.8654C135.011 11.9098 135.54 12.0727 135.893 12.2096C136.359 12.3909 136.692 12.6076 137.042 12.9574C137.392 13.3072 137.609 13.6402 137.79 14.1069C137.927 14.4591 138.09 14.9884 138.134 15.9631C138.182 17.0172 138.192 17.3334 138.192 20.0027C138.192 22.672 138.182 22.9882 138.134 24.0423C138.09 25.017 137.927 25.5463 137.79 25.8986C137.609 26.3652 137.392 26.6982 137.042 27.048C136.692 27.3978 136.359 27.6145 135.893 27.7958C135.54 27.9327 135.011 28.0956 134.036 28.14C132.982 28.1881 132.666 28.1983 129.997 28.1983C127.327 28.1983 127.011 28.1881 125.957 28.14C124.983 28.0956 124.453 27.9327 124.101 27.7958C123.634 27.6145 123.301 27.3978 122.952 27.048C122.602 26.6982 122.385 26.3652 122.204 25.8986C122.067 25.5463 121.904 25.017 121.86 24.0423C121.811 22.9882 121.801 22.672 121.801 20.0027C121.801 17.3334 121.811 17.0172 121.86 15.9631C121.904 14.9884 122.067 14.4591 122.204 14.1069C122.385 13.6402 122.602 13.3072 122.952 12.9574C123.301 12.6076 123.634 12.3909 124.101 12.2096C124.453 12.0727 124.983 11.9098 125.957 11.8654C127.011 11.8173 127.328 11.8071 129.997 11.8071Z" fill="white"/>
<path fill-rule="evenodd" clip-rule="evenodd" d="M129.997 23.3359C128.156 23.3359 126.665 21.844 126.665 20.0036C126.665 18.1633 128.156 16.6713 129.997 16.6713C131.837 16.6713 133.329 18.1633 133.329 20.0036C133.329 21.844 131.837 23.3359 129.997 23.3359ZM129.997 14.8701C127.162 14.8701 124.863 17.1685 124.863 20.0036C124.863 22.8388 127.162 25.1371 129.997 25.1371C132.832 25.1371 135.13 22.8388 135.13 20.0036C135.13 17.1685 132.832 14.8701 129.997 14.8701Z" fill="white"/>
<path fill-rule="evenodd" clip-rule="evenodd" d="M136.533 14.6664C136.533 15.329 135.996 15.866 135.333 15.866C134.671 15.866 134.134 15.329 134.134 14.6664C134.134 14.0039 134.671 13.4668 135.333 13.4668C135.996 13.4668 136.533 14.0039 136.533 14.6664Z" fill="white"/>
<path fill-rule="evenodd" clip-rule="evenodd" d="M20 40C31.0457 40 40 31.0457 40 20C40 8.9543 31.0457 0 20 0C8.9543 0 0 8.9543 0 20C0 31.0457 8.9543 40 20 40Z" fill="#3064CE"/>
<path d="M24.6234 11.0037L22.2249 11C19.5302 11 17.7888 12.7387 17.7888 15.4298V17.4723H15.3771C15.1688 17.4723 15 17.6367 15 17.8395V20.7988C15 21.0016 15.1689 21.1658 15.3771 21.1658H17.7888V28.633C17.7888 28.8358 17.9575 29 18.1659 29H21.3124C21.5208 29 21.6896 28.8356 21.6896 28.633V21.1658H24.5093C24.7177 21.1658 24.8865 21.0016 24.8865 20.7988L24.8876 17.8395C24.8876 17.7421 24.8478 17.6489 24.7772 17.5799C24.7066 17.511 24.6103 17.4723 24.5103 17.4723H21.6896V15.7409C21.6896 14.9087 21.8933 14.4862 23.0073 14.4862L24.623 14.4857C24.8312 14.4857 25 14.3212 25 14.1186V11.3708C25 11.1683 24.8314 11.0041 24.6234 11.0037Z" fill="white"/>
<path fill-rule="evenodd" clip-rule="evenodd" d="M75 40C86.0457 40 95 31.0457 95 20C95 8.9543 86.0457 0 75 0C63.9543 0 55 8.9543 55 20C55 31.0457 63.9543 40 75 40Z" fill="#4C75A3"/>
<path fill-rule="evenodd" clip-rule="evenodd" d="M75 34C82.732 34 89 27.732 89 20C89 12.268 82.732 6 75 6C67.268 6 61 12.268 61 20C61 27.732 67.268 34 75 34Z" fill="white"/>
<path d="M75 6C67.2683 6 61 12.268 61 20C61 27.732 67.2683 34 75 34C82.7317 34 89 27.732 89 20C89 12.268 82.7317 6 75 6ZM82.1015 21.5141C82.7541 22.1515 83.4444 22.7513 84.0302 23.4545C84.2897 23.7656 84.5343 24.0873 84.7205 24.4491C84.9863 24.965 84.7463 25.5307 84.2845 25.5613L81.4164 25.5608C80.6756 25.6221 80.0861 25.3233 79.5891 24.8169C79.1924 24.4133 78.8243 23.9822 78.4422 23.5648C78.2861 23.3935 78.1217 23.2322 77.9258 23.1054C77.5348 22.851 77.195 22.9289 76.971 23.3374C76.7427 23.753 76.6906 24.2136 76.6688 24.6762C76.6376 25.3525 76.4337 25.5292 75.7551 25.561C74.3051 25.6289 72.9293 25.4089 71.6506 24.6779C70.5226 24.0331 69.6495 23.1231 68.8887 22.0928C67.4072 20.0842 66.2726 17.8797 65.2531 15.6119C65.0237 15.1012 65.1916 14.8279 65.755 14.8174C66.6911 14.7993 67.6272 14.8016 68.5633 14.8165C68.9443 14.8225 69.1963 15.0405 69.3427 15.4C69.8486 16.6446 70.4687 17.8287 71.2459 18.927C71.453 19.2194 71.6643 19.511 71.9654 19.7176C72.2977 19.9456 72.5509 19.8702 72.7076 19.4993C72.8078 19.2635 72.8511 19.0115 72.8729 18.7588C72.9473 17.8935 72.9562 17.0284 72.8273 16.1665C72.7471 15.6271 72.4438 15.2788 71.9061 15.1768C71.6323 15.125 71.6724 15.0236 71.8056 14.8672C72.0367 14.5968 72.2533 14.4295 72.6861 14.4295L75.9267 14.4289C76.4374 14.5292 76.552 14.7583 76.6213 15.2728L76.6241 18.874C76.6181 19.0731 76.7241 19.6631 77.0816 19.7935C77.368 19.888 77.5571 19.6583 77.7284 19.477C78.5055 18.6523 79.0592 17.6789 79.555 16.6715C79.7739 16.2272 79.9627 15.7675 80.146 15.3069C80.2823 14.9663 80.4943 14.7987 80.8787 14.8045L83.9992 14.8082C84.0912 14.8082 84.1846 14.809 84.2757 14.8248C84.8016 14.9147 84.9457 15.141 84.783 15.6541C84.5269 16.4601 84.0293 17.1315 83.5429 17.8047C83.0216 18.5254 82.4656 19.2209 81.9494 19.9447C81.4751 20.6064 81.5126 20.9395 82.1015 21.5141Z" fill="#4C75A3"/>
</svg>
